<?xml version="1.0" encoding="UTF-8" standalone="no"?>
<svg
   xmlns:dc="http://purl.org/dc/elements/1.1/"
   xmlns:cc="http://creativecommons.org/ns#"
   xmlns:rdf="http://www.w3.org/1999/02/22-rdf-syntax-ns#"
   xmlns:svg="http://www.w3.org/2000/svg"
   xmlns="http://www.w3.org/2000/svg"
   xmlns:sodipodi="http://sodipodi.sourceforge.net/DTD/sodipodi-0.dtd"
   xmlns:inkscape="http://www.inkscape.org/namespaces/inkscape"
   version="1.0"
   width="220.18892pt"
   height="213.86696pt"
   viewBox="0 0 220.18892 213.86696"
   preserveAspectRatio="xMidYMid meet"
   id="svg2"
   inkscape:version="0.91 r13725"
   sodipodi:docname="noraneko.svg">
  <metadata
     id="metadata12">
    <rdf:RDF>
      <cc:Work
         rdf:about="">
        <dc:format>image/svg+xml</dc:format>
        <dc:type
           rdf:resource="http://purl.org/dc/dcmitype/StillImage" />
        <dc:title></dc:title>
      </cc:Work>
    </rdf:RDF>
  </metadata>
  <defs
     id="defs10" />
  <sodipodi:namedview
     pagecolor="#ffffff"
     bordercolor="#666666"
     borderopacity="1"
     objecttolerance="10"
     gridtolerance="10"
     guidetolerance="10"
     inkscape:pageopacity="0"
     inkscape:pageshadow="2"
     inkscape:window-width="1743"
     inkscape:window-height="912"
     id="namedview8"
     showgrid="false"
     inkscape:zoom="0.52444444"
     inkscape:cx="-221.92488"
     inkscape:cy="58.878547"
     inkscape:window-x="0"
     inkscape:window-y="9"
     inkscape:window-maximized="0"
     inkscape:current-layer="svg2"
     fit-margin-top="0"
     fit-margin-left="0"
     fit-margin-right="0"
     fit-margin-bottom="0" />
  <g
     transform="matrix(0.06610885,0,0,-0.06610885,-3.9200761,229.24177)"
     id="g4"
     style="fill:#000000;stroke:none">
    <path
       d="m 2670,3461 c 0,-8 -8,-24 -19,-35 -19,-22 -34,-50 -94,-178 -20,-43 -41,-78 -46,-78 -6,0 -37,-26 -69,-57 -33,-32 -68,-65 -78,-74 -48,-41 -71,-88 -102,-204 -6,-22 -22,-83 -37,-135 -14,-52 -25,-102 -25,-111 0,-9 -3,-19 -7,-23 -11,-10 -33,-79 -33,-103 0,-12 -4,-25 -10,-28 -5,-3 -10,-15 -10,-25 0,-10 -4,-20 -9,-22 -4,-1 -29,-47 -55,-101 -32,-68 -46,-112 -46,-140 0,-29 -7,-51 -23,-69 -73,-89 -107,-153 -107,-199 0,-41 -101,-172 -171,-223 -21,-14 -84,-123 -109,-186 -7,-19 -28,-56 -47,-81 -18,-26 -33,-50 -33,-53 0,-4 -11,-18 -24,-31 -13,-13 -29,-41 -36,-62 -6,-21 -15,-47 -20,-58 -5,-11 -16,-41 -24,-68 -9,-26 -28,-66 -43,-90 -35,-54 -79,-132 -100,-177 -53,-115 -77,-159 -99,-183 -13,-14 -24,-29 -24,-33 0,-4 -10,-15 -22,-26 -22,-19 -22,-19 -60,23 -21,23 -38,46 -38,51 0,5 -11,21 -24,35 -13,14 -30,47 -37,72 -7,25 -16,51 -21,58 -6,7 -7,45 -3,85 3,40 8,139 11,221 l 5,147 -39,73 c -21,39 -45,83 -53,97 -23,40 -92,111 -124,127 -16,9 -39,27 -51,40 -11,13 -49,34 -85,46 -35,13 -68,25 -74,29 -78,47 -90,51 -190,52 -128,1 -195,-19 -259,-80 -48,-45 -59,-82 -33,-115 11,-15 26,-16 172,-3 167,15 187,13 220,-16 11,-10 37,-23 57,-31 33,-11 151,-115 216,-190 13,-15 30,-53 38,-85 8,-33 20,-69 25,-80 13,-25 7,-108 -12,-179 -8,-27 -14,-93 -14,-145 0,-80 4,-101 23,-135 21,-37 61,-97 80,-120 4,-5 21,-37 37,-70 19,-38 57,-88 105,-136 65,-67 81,-77 120,-83 25,-4 176,-11 335,-16 160,-5 315,-13 345,-19 64,-12 351,-15 462,-5 62,5 84,3 113,-10 31,-15 54,-16 165,-10 99,5 130,10 130,20 0,8 5,14 10,14 6,0 22,11 35,25 20,19 25,34 25,73 0,47 -1,49 -59,90 l -59,41 5,93 c 2,51 6,107 9,123 3,17 9,102 14,190 7,156 26,286 51,362 15,45 6,314 -12,359 -18,46 -25,425 -8,466 21,53 34,57 155,58 96,0 113,3 128,19 9,10 30,21 46,25 16,3 47,21 68,41 22,19 45,35 51,35 13,0 41,-62 61,-135 14,-54 40,-101 40,-74 0,8 -4,19 -9,24 -4,6 -14,33 -21,60 -7,28 -24,72 -37,99 -23,45 -25,76 -5,76 13,0 120,-102 142,-135 12,-17 20,-24 20,-15 0,17 -75,98 -131,142 l -34,26 20,21 20,21 88,-76 c 48,-41 87,-71 87,-67 0,4 -19,24 -41,43 -22,19 -54,47 -70,63 -17,15 -35,27 -39,27 -17,0 -20,34 -4,51 19,21 13,25 -15,7 -15,-9 -23,-7 -47,15 l -28,26 28,11 c 15,5 36,10 47,10 19,0 19,1 2,25 -12,16 -25,23 -37,21 -27,-7 -46,22 -39,59 9,48 23,53 24,10 0,-35 1,-37 10,-17 13,35 24,252 13,260 -13,9 -44,76 -44,96 0,16 38,57 138,149 29,27 52,50 52,53 0,2 -11,4 -25,4 -24,0 -47,-8 -120,-41 -110,-49 -212,-62 -245,-29 -11,11 -24,20 -28,20 -13,0 -72,30 -104,52 -14,10 -35,18 -46,18 -12,0 -24,5 -27,10 -13,22 -45,173 -45,214 0,23 -7,51 -15,62 -10,14 -14,15 -15,5 z m 98,-843 c 7,-27 17,-48 22,-48 8,0 30,62 30,86 0,7 10,9 25,6 21,-4 25,-10 25,-41 0,-45 -42,-91 -83,-91 -41,0 -97,55 -97,94 0,40 7,48 39,44 21,-2 28,-12 39,-50 z"
       id="path6"
       inkscape:connector-curvature="0" />
  </g>
</svg>
