<?xml version="1.0" encoding="UTF-8" standalone="no"?>
<svg
   xmlns:dc="http://purl.org/dc/elements/1.1/"
   xmlns:cc="http://creativecommons.org/ns#"
   xmlns:rdf="http://www.w3.org/1999/02/22-rdf-syntax-ns#"
   xmlns:svg="http://www.w3.org/2000/svg"
   xmlns="http://www.w3.org/2000/svg"
   xmlns:sodipodi="http://sodipodi.sourceforge.net/DTD/sodipodi-0.dtd"
   xmlns:inkscape="http://www.inkscape.org/namespaces/inkscape"
   version="1.0"
   width="260.81436pt"
   height="78.03849pt"
   viewBox="0 0 260.81436 78.03849"
   preserveAspectRatio="xMidYMid meet"
   id="svg2"
   inkscape:version="0.91 r13725"
   sodipodi:docname="shuhari2.svg">
  <metadata
     id="metadata32">
    <rdf:RDF>
      <cc:Work
         rdf:about="">
        <dc:format>image/svg+xml</dc:format>
        <dc:type
           rdf:resource="http://purl.org/dc/dcmitype/StillImage" />
        <dc:title></dc:title>
      </cc:Work>
    </rdf:RDF>
  </metadata>
  <defs
     id="defs30" />
  <sodipodi:namedview
     pagecolor="#ffffff"
     bordercolor="#666666"
     borderopacity="1"
     objecttolerance="10"
     gridtolerance="10"
     guidetolerance="10"
     inkscape:pageopacity="0"
     inkscape:pageshadow="2"
     inkscape:window-width="1920"
     inkscape:window-height="1017"
     id="namedview28"
     showgrid="false"
     inkscape:zoom="0.38109641"
     inkscape:cx="562.5"
     inkscape:cy="-68.120725"
     inkscape:window-x="-8"
     inkscape:window-y="1"
     inkscape:window-maximized="1"
     inkscape:current-layer="g4"
     fit-margin-top="0"
     fit-margin-left="0"
     fit-margin-right="0"
     fit-margin-bottom="0" />
  <g
     transform="matrix(0.02946318,0,0,-0.02946318,-23.275912,88.6945)"
     id="g4"
     style="fill:#000000;stroke:none">
    <path
       d="m 1849,3003 c -1,-5 -1,-11 0,-15 0,-4 -7,-4 -17,-1 -9,3 -14,2 -9,-2 4,-5 -6,-14 -22,-21 -32,-13 -110,-125 -111,-158 0,-11 -12,-34 -26,-53 -34,-45 -26,-51 16,-13 54,48 91,40 202,-43 95,-70 171,-140 230,-211 l 50,-60 -5,55 c -9,105 -57,220 -130,310 -24,30 -59,79 -78,109 -52,84 -96,129 -100,103 z"
       id="path6"
       inkscape:connector-curvature="0" />
    <path
       d="m 7220,2955 c 0,-8 9,-19 20,-25 16,-8 20,-21 20,-60 0,-27 -4,-52 -10,-55 -5,-3 -10,-42 -10,-86 l 0,-79 38,23 c 20,13 54,29 75,36 38,13 97,7 97,-10 0,-4 28,-26 63,-48 34,-22 74,-53 90,-68 25,-26 26,-29 10,-40 -10,-7 -25,-18 -33,-25 -25,-22 -95,-68 -103,-68 -4,0 -49,-20 -100,-44 -51,-24 -108,-47 -127,-51 -19,-4 -48,-13 -65,-20 -16,-7 -56,-23 -87,-35 -32,-12 -62,-27 -67,-34 -12,-14 -149,-4 -189,14 -13,6 -21,6 -18,1 4,-5 0,-11 -6,-14 -7,-2 3,-11 22,-20 19,-8 51,-30 70,-48 19,-19 53,-46 74,-60 35,-24 46,-27 95,-22 66,7 115,30 168,78 21,19 45,35 53,35 9,0 41,13 73,30 31,16 87,41 124,56 38,14 82,32 98,39 17,8 52,23 78,34 72,30 176,48 327,56 74,3 139,11 144,16 12,11 -13,35 -74,71 -25,14 -58,38 -73,52 -15,14 -34,26 -42,26 -7,0 -27,16 -43,36 -27,32 -34,35 -63,29 -43,-8 -109,-36 -109,-45 0,-8 -72,-60 -83,-60 -4,0 -7,28 -7,63 -1,60 -2,63 -45,107 -25,25 -45,48 -45,51 0,4 -28,26 -62,50 -35,23 -69,49 -76,56 -44,43 -80,61 -139,67 -51,5 -63,3 -63,-9 z m 35,-5 c -3,-5 -10,-10 -16,-10 -5,0 -9,5 -9,10 0,6 7,10 16,10 8,0 12,-4 9,-10 z m -351,-706 c -1,-5 7,-15 17,-22 10,-7 24,-23 30,-35 10,-20 9,-20 -14,3 -34,32 -48,44 -72,58 -18,10 -17,11 10,8 17,-2 29,-7 29,-12 z"
       id="path8"
       inkscape:connector-curvature="0" />
    <path
       d="m 8986,2848 c -3,-29 -8,-91 -11,-138 -6,-96 -23,-178 -41,-200 -6,-8 -15,-26 -19,-40 -11,-34 -65,-130 -74,-130 -4,0 -23,-15 -42,-34 -36,-36 -96,-70 -141,-80 -40,-9 -36,17 7,49 27,21 35,36 41,71 3,24 10,47 15,50 18,11 8,43 -18,61 -14,10 -46,37 -71,60 -41,39 -51,53 -89,126 -29,55 -40,33 -46,-103 -3,-49 -11,-98 -20,-115 -8,-16 -24,-51 -36,-77 -11,-25 -26,-52 -33,-60 -7,-7 -21,-30 -31,-49 -23,-45 -231,-258 -272,-279 -35,-18 -69,-49 -61,-57 11,-12 127,-3 141,11 8,7 11,17 7,20 -3,4 2,4 12,0 15,-6 17,-4 11,6 -5,8 -4,11 2,7 6,-4 29,2 51,13 23,11 46,20 52,20 5,0 10,5 10,10 0,6 5,10 10,10 6,0 10,-8 10,-17 0,-16 1,-16 13,0 12,17 62,34 52,17 -3,-4 1,-15 9,-23 8,-8 12,-17 9,-21 -4,-3 -2,-6 4,-6 5,0 20,-24 34,-52 13,-29 27,-55 30,-58 4,-3 14,-51 23,-106 12,-78 16,-174 16,-415 -1,-437 -18,-559 -94,-643 -22,-24 -26,-39 -26,-89 0,-48 3,-58 15,-53 8,3 15,1 15,-4 0,-5 24,1 53,14 70,30 158,52 301,72 142,20 316,14 476,-16 58,-12 134,-25 170,-31 36,-5 89,-14 118,-19 65,-11 92,-4 62,17 -11,8 -20,20 -20,27 0,18 -47,59 -59,52 -5,-4 -13,-1 -17,5 -4,8 -3,9 4,5 19,-12 14,12 -5,26 -10,7 -47,46 -82,85 l -63,73 -62,0 c -37,0 -85,-8 -122,-21 -34,-12 -68,-20 -76,-17 -19,8 -47,260 -30,266 7,2 12,21 12,43 l 0,39 73,0 c 87,0 190,29 195,55 5,21 -26,92 -42,98 -7,3 -18,22 -25,43 -25,75 -28,77 -107,45 l -69,-28 -7,46 c -4,25 -10,76 -14,114 -8,81 4,101 71,110 47,7 85,25 85,42 1,21 -106,224 -117,224 -7,1 -22,-16 -32,-36 l -20,-38 2,130 2,130 40,9 c 22,4 65,16 95,26 30,10 95,21 144,24 50,4 92,8 94,11 8,7 -51,95 -146,220 l -43,56 -29,-21 c -15,-11 -34,-20 -42,-20 -10,0 -10,-3 2,-11 12,-8 11,-9 -7,-4 -19,5 -90,-25 -103,-45 -12,-18 -79,-47 -122,-53 -42,-6 -46,-5 -41,11 13,34 38,68 95,126 32,32 76,83 99,112 36,47 40,58 35,89 -4,19 -11,35 -15,35 -4,0 -30,44 -56,98 -45,90 -88,152 -106,152 -4,0 -10,-24 -13,-52 z m 11,-80 c -2,-18 -4,-6 -4,27 0,33 2,48 4,33 2,-15 2,-42 0,-60 z m -10,-100 c -3,-7 -5,-2 -5,12 0,14 2,19 5,13 2,-7 2,-19 0,-25 z m 0,-80 c -3,-8 -6,-5 -6,6 -1,11 2,17 5,13 3,-3 4,-12 1,-19 z m -30,-99 c -18,-41 -24,-47 -23,-27 0,14 4,24 7,22 4,-2 13,17 20,42 8,26 15,40 17,32 2,-8 -8,-39 -21,-69 z m -337,-263 c 0,-2 -8,-10 -17,-17 -16,-13 -17,-12 -4,4 13,16 21,21 21,13 z m -27,-52 c -8,-21 -23,-17 -23,6 0,13 5,18 14,14 8,-3 12,-12 9,-20 z m 289,-266 c 4,-147 3,-149 -92,-145 l -65,2 -1,75 c 0,41 -6,85 -12,98 -11,19 -10,23 3,28 8,3 15,11 15,18 0,12 89,44 126,45 21,1 22,-4 26,-121 z m 12,-483 c -1,-44 -5,-95 -9,-112 -7,-31 -10,-33 -51,-33 -24,0 -44,5 -44,10 0,6 -7,10 -15,10 -10,0 -15,10 -15,30 0,17 -5,30 -11,30 -16,0 -7,114 11,135 10,12 27,15 74,13 l 61,-3 -1,-80 z m 34,-442 c 4,-122 -8,-143 -81,-143 -65,0 -76,15 -77,106 0,97 33,134 115,131 l 40,-2 3,-92 z M 8694,661 c -16,-4 -55,-20 -86,-34 -73,-35 -87,-34 -46,2 35,31 59,38 123,39 38,0 38,0 9,-7 z m 900,-60 c -2,-3 -12,3 -22,13 -16,17 -16,18 5,5 12,-7 20,-15 17,-18 z m 4,-36 c -3,-3 -9,2 -12,12 -6,14 -5,15 5,6 7,-7 10,-15 7,-18 z"
       id="path10"
       inkscape:connector-curvature="0" />
    <path
       d="m 4900,2820 c 0,-12 16,-28 44,-45 27,-16 43,-32 40,-39 -5,-13 19,-36 80,-80 14,-10 26,-22 26,-26 0,-4 14,-22 30,-40 17,-18 30,-38 30,-45 0,-7 7,-19 17,-26 27,-23 79,-111 97,-164 9,-28 25,-61 35,-75 l 18,-26 -36,-17 c -20,-10 -51,-31 -70,-47 -18,-17 -39,-30 -46,-30 -7,0 -32,-15 -56,-32 -24,-18 -58,-41 -76,-50 -34,-19 -103,-24 -103,-8 0,6 11,10 25,10 14,0 25,4 25,8 0,5 -13,7 -28,4 -18,-2 -42,4 -63,17 -72,44 -89,27 -89,-90 0,-62 2,-68 35,-102 19,-20 35,-43 35,-51 0,-8 11,-35 25,-60 21,-39 25,-57 25,-135 0,-63 -6,-107 -21,-153 -16,-49 -23,-105 -29,-258 -5,-107 -12,-219 -16,-248 l -7,-52 -33,25 c -18,14 -39,25 -48,25 -26,0 -30,56 -6,96 16,28 21,55 22,118 2,103 -13,276 -23,276 -5,0 -23,13 -41,29 -38,33 -93,51 -160,51 -40,0 -48,-3 -53,-22 -4,-13 -27,-56 -52,-96 -25,-41 -49,-88 -54,-105 -18,-74 -42,-122 -91,-183 -41,-51 -54,-61 -61,-49 -15,27 -37,125 -37,165 l 0,40 -67,0 c -66,0 -69,-1 -105,-40 -21,-22 -38,-48 -37,-57 0,-14 2,-13 9,5 13,32 22,27 44,-21 11,-23 25,-47 30,-52 11,-10 26,-38 102,-185 19,-36 34,-79 34,-96 0,-47 11,-94 23,-94 12,0 41,33 69,80 12,19 30,41 39,47 12,9 18,32 21,87 3,59 8,80 25,98 12,13 42,64 67,113 25,50 57,102 71,115 l 25,23 0,-32 c 0,-17 12,-69 26,-113 l 27,-82 -23,-16 c -13,-8 -53,-31 -90,-51 l -66,-35 65,-19 c 36,-10 73,-22 81,-26 28,-15 109,-49 116,-49 4,0 33,-10 65,-21 57,-21 59,-23 59,-58 0,-63 -34,-199 -66,-264 -8,-16 -14,-33 -14,-39 0,-5 -23,-48 -50,-95 -28,-47 -48,-88 -45,-91 5,-6 102,72 122,98 6,8 27,33 47,55 31,35 76,126 76,155 0,17 71,224 78,230 21,15 80,230 101,367 28,180 33,210 42,238 46,162 63,321 38,368 -7,12 -23,33 -35,46 -27,27 -30,41 -11,41 8,0 22,9 31,19 15,17 56,35 56,26 0,-2 -10,-20 -21,-40 -12,-20 -19,-38 -16,-42 4,-3 12,7 19,23 17,39 48,74 65,74 7,0 18,11 23,25 9,25 87,72 98,60 4,-4 8,-89 10,-189 l 3,-183 -26,-32 c -15,-17 -31,-31 -37,-31 -6,0 -23,-11 -40,-25 -20,-17 -24,-25 -14,-25 9,0 16,-4 16,-10 0,-5 -4,-10 -10,-10 -5,0 -10,-4 -10,-10 0,-23 247,4 323,35 16,7 16,4 -3,-36 -41,-84 -53,-104 -76,-129 -21,-23 -57,-89 -66,-118 -5,-18 -72,28 -148,101 -32,31 -65,57 -72,56 -7,0 -3,-4 10,-9 12,-5 22,-14 22,-20 0,-6 -4,-9 -9,-6 -5,3 -15,-2 -22,-10 -12,-15 -15,-11 -25,27 -7,24 -12,35 -13,23 -2,-40 29,-119 62,-157 134,-155 131,-149 108,-178 -10,-13 -26,-40 -36,-59 -10,-19 -31,-51 -46,-70 -16,-19 -29,-38 -29,-43 0,-17 -82,-116 -164,-197 -84,-83 -102,-110 -70,-110 11,0 14,-6 8,-22 -6,-20 -5,-21 9,-9 9,7 14,18 10,24 -3,5 -1,7 4,4 6,-4 19,3 29,14 17,19 17,20 -2,13 -10,-4 -16,-4 -12,0 3,4 13,9 22,10 9,1 26,11 38,22 13,11 44,32 70,47 26,15 101,81 167,148 91,91 124,119 138,114 17,-5 63,-67 63,-84 0,-4 10,-26 23,-48 79,-144 103,-181 140,-219 38,-38 49,-43 114,-53 100,-15 219,-14 283,4 30,8 111,18 180,21 69,3 136,8 150,11 23,5 24,6 5,13 -11,5 -42,9 -70,10 -83,1 -25,23 66,24 42,1 81,4 85,9 15,15 -14,28 -82,38 -38,5 -95,18 -127,29 -32,11 -97,24 -145,29 -92,10 -183,44 -226,84 -84,79 -158,138 -206,162 -44,22 -153,132 -140,140 6,3 10,14 10,24 0,10 9,26 20,36 11,10 20,23 20,29 0,6 16,28 35,50 19,21 35,43 35,48 0,18 92,199 109,216 10,9 24,37 30,62 27,96 28,91 -41,138 -35,24 -78,55 -97,68 -19,13 -39,23 -45,21 -6,-2 -24,-29 -41,-60 -16,-31 -36,-57 -43,-57 -19,0 -73,-40 -68,-49 3,-4 0,-8 -7,-8 -7,0 -16,-2 -22,-3 -5,-1 -25,-2 -42,-1 -31,1 -33,3 -33,40 0,22 4,42 9,45 5,4 13,25 17,49 7,38 8,40 15,17 4,-14 7,-18 8,-10 1,19 318,330 336,330 8,0 33,18 56,40 23,21 57,44 77,51 19,6 43,19 53,27 23,20 35,76 20,94 -6,7 -27,34 -47,61 -19,26 -40,47 -46,47 -6,0 -33,-22 -61,-50 -27,-27 -55,-50 -62,-50 -7,0 -24,-9 -38,-20 -29,-23 -112,-54 -167,-62 l -36,-6 1,96 c 0,82 -4,104 -22,139 -13,23 -35,49 -50,58 -16,10 -48,42 -72,71 -42,53 -73,73 -185,118 -29,12 -74,16 -177,16 -131,0 -139,-1 -139,-20 z m 1097,-432 c -3,-8 -6,-5 -6,6 -1,11 2,17 5,13 3,-3 4,-12 1,-19 z m -137,-123 c 0,-2 -10,-9 -22,-15 -22,-11 -22,-10 -4,4 21,17 26,19 26,11 z m -340,-119 c 0,-2 -7,-17 -15,-32 l -15,-29 0,33 c 0,22 5,32 15,32 8,0 15,-2 15,-4 z m -526,-111 c -4,-8 -10,-15 -14,-15 -4,0 -13,7 -20,15 -11,13 -8,15 13,15 19,0 25,-4 21,-15 z m 751,-215 c 3,-6 -1,-7 -9,-4 -18,7 -21,14 -7,14 6,0 13,-4 16,-10 z m -305,-100 c -8,-5 -19,-10 -25,-10 -5,0 -3,5 5,10 8,5 20,10 25,10 6,0 3,-5 -5,-10 z m 247,-22 c -3,-8 -6,-5 -6,6 -1,11 2,17 5,13 3,-3 4,-12 1,-19 z m -240,-45 c -31,-13 -41,-13 -50,-3 -7,7 -7,11 -2,8 6,-3 19,-2 30,3 11,4 29,8 40,8 12,0 5,-6 -18,-16 z m -156,-230 c 13,-16 12,-17 -3,-4 -17,13 -22,21 -14,21 2,0 10,-8 17,-17 z M 4873,931 c -4,-3 -10,-17 -11,-31 -5,-33 -10,-37 -18,-15 -4,10 -2,26 4,36 7,10 12,34 12,52 0,19 3,56 8,83 7,46 7,44 10,-35 2,-46 -1,-87 -5,-90 z m 432,29 c -3,-5 -20,-19 -38,-30 -32,-22 -32,-22 3,9 37,32 45,37 35,21 z m -415,-81 c 0,-5 -4,-9 -10,-9 -5,0 -10,7 -10,16 0,8 5,12 10,9 6,-3 10,-10 10,-16 z M 6495,750 c -3,-5 -21,-9 -38,-9 l -32,1 30,8 c 43,11 47,11 40,0 z m -112,-57 c -24,-2 -62,-2 -85,0 -24,2 -5,4 42,4 47,0 66,-2 43,-4 z"
       id="path12"
       inkscape:connector-curvature="0" />
    <path
       d="m 2677,2484 c -10,-10 -137,-51 -202,-64 -33,-7 -73,-16 -90,-21 -16,-4 -57,-11 -90,-15 -68,-8 -171,-36 -230,-64 -22,-10 -78,-31 -125,-46 -47,-14 -103,-35 -126,-45 -22,-11 -46,-19 -52,-19 -6,0 -28,-9 -47,-20 -20,-11 -64,-24 -98,-30 -34,-5 -78,-14 -97,-20 -81,-26 -159,-42 -227,-47 -69,-4 -73,-3 -73,17 0,11 11,32 25,46 14,14 25,26 25,28 0,2 -15,9 -32,16 -18,7 -46,19 -63,26 -123,51 -185,54 -185,6 0,-15 -3,-38 -6,-52 -4,-18 -3,-21 4,-11 18,26 35,-26 29,-93 -4,-56 -30,-157 -47,-181 -3,-5 -12,-29 -19,-51 -8,-23 -24,-53 -37,-68 -13,-14 -24,-30 -24,-35 0,-6 -7,-14 -15,-18 -19,-11 -85,-104 -85,-121 0,-7 5,-10 10,-7 6,4 8,11 5,16 -3,5 1,6 10,3 9,-4 33,0 53,9 20,8 63,23 94,32 68,20 100,43 134,96 20,33 24,51 24,119 l 0,81 47,20 c 27,11 56,17 68,14 11,-4 54,-10 95,-15 41,-5 95,-14 120,-21 60,-15 154,-22 194,-15 18,4 66,29 107,56 41,27 79,50 85,50 7,0 34,20 61,44 35,32 71,52 128,71 44,15 88,32 98,37 9,5 81,22 160,37 125,26 172,30 394,36 244,6 253,5 294,-15 55,-28 46,-36 -101,-86 -108,-37 -119,-43 -175,-100 -64,-65 -130,-153 -121,-161 7,-7 46,18 126,81 81,64 109,78 185,87 93,10 189,35 247,62 29,14 82,35 118,46 87,29 150,61 150,77 0,15 -33,39 -70,49 -14,4 -39,17 -55,30 -30,22 -117,65 -132,65 -5,0 -25,9 -45,20 -44,23 -94,37 -203,55 -84,15 -207,19 -218,9 z"
       id="path14"
       inkscape:connector-curvature="0" />
    <path
       d="m 4310,2309 c -36,-17 -66,-35 -68,-40 -2,-5 -8,-9 -14,-9 -6,0 -26,-11 -44,-25 -18,-14 -39,-25 -48,-25 -8,0 -18,-4 -21,-10 -3,-5 -15,-10 -26,-10 -10,0 -36,-15 -56,-33 -21,-19 -53,-42 -70,-53 -18,-10 -33,-21 -33,-25 0,-4 -15,-17 -34,-28 -35,-22 -91,-28 -101,-11 -3,6 -19,10 -35,10 -15,0 -31,5 -33,10 -3,6 -4,5 -3,-2 1,-7 29,-22 62,-34 55,-19 82,-35 123,-75 31,-30 88,-69 101,-69 7,0 35,16 63,36 l 50,36 -7,-51 c -9,-70 -111,-280 -163,-339 -13,-14 -23,-31 -23,-38 0,-8 -4,-14 -8,-14 -5,0 -28,-42 -51,-92 -86,-189 -152,-298 -213,-354 -18,-17 -42,-43 -53,-59 -64,-92 -243,-263 -317,-302 -54,-29 -58,-33 -32,-33 l 29,-1 -30,-14 c -30,-13 -30,-13 -5,-15 18,-2 20,-4 8,-7 -10,-2 -18,-9 -18,-14 0,-4 12,-3 28,3 34,15 55,32 27,23 -15,-5 -17,-4 -6,3 8,6 20,8 27,5 7,-2 25,3 41,13 22,14 18,7 -17,-29 -24,-26 -48,-47 -53,-47 -5,0 -20,-9 -34,-20 -33,-26 -24,-25 40,2 47,21 68,33 101,63 6,6 27,21 47,33 47,29 196,188 200,214 1,4 2,12 3,17 0,5 5,13 10,18 5,5 6,3 2,-4 -4,-7 -2,-13 3,-13 6,0 11,3 11,8 0,4 41,49 90,101 50,52 90,98 90,102 0,5 25,46 55,93 30,46 55,87 55,90 0,8 63,99 82,118 10,10 18,25 18,33 0,8 4,15 9,15 5,0 40,41 78,92 37,50 74,99 81,108 7,9 33,39 57,66 25,27 45,54 45,60 0,6 9,19 20,29 27,24 25,54 -5,89 -14,16 -25,33 -25,38 0,4 -5,8 -12,8 -7,0 -22,10 -33,23 -27,32 -52,40 -63,20 -8,-13 -10,-13 -15,0 -11,29 113,99 235,132 67,18 125,18 253,-1 l 40,-5 -38,33 c -21,18 -73,68 -115,111 l -76,77 -60,0 c -47,0 -76,-7 -126,-31 z M 3741,997 c -10,-9 -11,-8 -5,6 3,10 9,15 12,12 3,-3 0,-11 -7,-18 z M 3553,890 c -3,-11 -8,-20 -12,-20 -4,0 -7,-12 -8,-27 l -2,-28 15,28 c 15,28 24,34 24,18 0,-6 -12,-23 -26,-38 -14,-15 -23,-22 -19,-15 3,6 1,12 -6,12 -6,0 -9,-8 -6,-20 3,-11 2,-18 -3,-15 -11,7 -33,-22 -25,-35 4,-6 1,-9 -7,-8 -7,2 -12,-4 -12,-13 1,-9 -4,-16 -10,-16 -6,0 -20,-4 -31,-9 -12,-5 -2,12 28,45 26,29 47,58 47,64 0,5 -12,-6 -27,-26 -27,-35 -53,-54 -53,-39 0,5 15,23 34,42 19,19 31,39 28,45 -3,5 2,4 11,-4 15,-12 17,-11 17,3 0,9 6,16 13,17 9,0 9,2 -1,6 -10,4 -8,11 9,29 27,29 29,29 22,4 z M 3410,741 c 0,-12 -26,-38 -52,-52 -30,-16 -65,-18 -65,-4 0,8 11,12 25,10 18,-2 33,6 50,26 24,29 42,37 42,20 z"
       id="path16"
       inkscape:connector-curvature="0" />
    <path
       d="m 7792,2240 c -53,-50 -62,-63 -56,-82 3,-13 10,-25 13,-28 3,-3 30,-39 59,-82 38,-56 52,-85 52,-111 0,-35 -14,-56 -156,-224 l -35,-43 -109,0 -109,0 -15,29 c -17,33 -13,41 23,41 34,0 100,34 129,67 23,25 23,25 45,7 12,-11 29,-27 38,-36 20,-22 39,-23 39,-4 0,20 49,76 65,76 25,0 27,21 4,46 -12,13 -29,24 -36,24 -27,0 -8,35 30,55 44,23 44,43 2,65 -17,8 -47,32 -67,53 -21,20 -39,37 -40,37 -2,0 -2,-24 0,-53 3,-44 0,-56 -18,-72 -19,-17 -37,-20 -128,-20 l -105,0 -15,-43 c -13,-40 -13,-44 4,-57 11,-8 32,-17 48,-21 l 28,-6 -43,-44 c -24,-24 -46,-44 -50,-44 -4,0 -12,14 -19,30 -7,17 -16,30 -20,30 -4,0 -17,20 -30,45 -13,25 -29,50 -37,56 -7,7 -45,14 -84,17 -60,4 -74,2 -97,-15 -18,-13 -39,-19 -62,-17 -35,3 -35,3 -5,-5 17,-5 22,-9 13,-10 -9,0 -20,-5 -23,-11 -4,-6 4,-6 21,1 32,11 82,-9 103,-43 6,-10 15,-71 18,-135 6,-114 7,-117 42,-165 24,-32 43,-48 58,-48 12,0 26,-6 30,-13 11,-18 96,-67 116,-67 9,0 45,22 78,50 61,48 73,56 174,100 100,44 110,49 132,55 16,4 26,0 34,-13 11,-18 15,-15 54,32 93,115 136,208 137,299 1,20 3,24 9,15 5,-8 9,6 9,38 0,28 3,65 6,82 5,26 -1,37 -57,95 -35,36 -75,79 -89,96 -14,17 -29,31 -35,31 -5,0 -38,-27 -73,-60 z m 205,-372 c -3,-7 -5,-2 -5,12 0,14 2,19 5,13 2,-7 2,-19 0,-25 z m -607,-128 c -8,-5 -22,-10 -30,-10 -13,0 -13,1 0,10 8,5 22,10 30,10 13,0 13,-1 0,-10 z"
       id="path18"
       inkscape:connector-curvature="0" />
    <path
       d="m 2182,2078 c -10,-13 -23,-94 -41,-258 -37,-337 -38,-341 -104,-399 -22,-20 -42,-26 -110,-32 -93,-8 -193,-33 -215,-55 -8,-8 -57,-35 -108,-60 -52,-25 -96,-50 -99,-55 -12,-18 -118,-10 -150,11 -21,14 -47,20 -87,20 -32,0 -58,-2 -58,-4 0,-2 32,-36 70,-75 39,-40 70,-76 70,-81 0,-5 16,-25 35,-45 39,-38 71,-44 152,-25 47,11 149,77 197,127 17,18 34,33 39,33 17,0 197,93 197,101 0,11 77,12 84,1 3,-5 16,-52 30,-105 35,-132 43,-254 23,-337 -9,-36 -19,-80 -22,-98 l -7,-32 -72,0 c -48,0 -79,-5 -92,-15 -11,-8 -41,-14 -71,-15 -29,0 -53,-3 -53,-7 0,-5 19,-17 42,-28 22,-11 67,-44 99,-75 32,-30 74,-70 93,-88 20,-18 45,-51 57,-74 l 21,-42 16,30 c 8,16 18,31 21,34 19,14 61,79 61,94 0,9 14,47 31,84 29,60 33,83 43,212 13,175 14,391 2,482 -8,58 -6,72 13,111 32,65 79,94 197,118 54,11 115,24 135,28 42,9 99,47 99,65 0,22 -100,77 -150,83 -46,5 -47,5 -101,-52 -30,-31 -68,-63 -86,-71 -35,-15 -83,-19 -83,-6 0,13 29,165 40,207 20,82 14,107 -35,153 -24,22 -47,54 -50,69 -13,61 -21,78 -41,81 -11,2 -26,-3 -32,-10 z"
       id="path20"
       inkscape:connector-curvature="0" />
    <path
       d="m 7910,1593 c -8,-3 -17,-9 -20,-12 -12,-14 -81,-61 -150,-101 -41,-25 -106,-68 -145,-96 -38,-29 -115,-77 -170,-108 -97,-54 -141,-92 -214,-185 -39,-49 -30,-51 -91,29 -14,18 -35,44 -47,59 -13,14 -34,50 -48,79 l -25,52 -59,0 c -33,0 -62,-4 -65,-9 -3,-5 -27,-14 -53,-20 l -47,-12 45,-29 c 30,-18 61,-52 91,-97 65,-100 133,-231 148,-288 7,-27 20,-63 27,-79 8,-16 18,-61 23,-100 16,-143 54,-226 105,-226 23,0 56,33 88,89 11,20 27,44 35,54 14,16 12,21 -20,55 -19,20 -42,48 -52,62 -17,25 -22,100 -7,100 9,0 71,120 71,139 0,6 3,11 8,11 7,0 11,9 51,101 30,72 86,120 155,133 53,10 105,33 258,114 63,33 70,35 95,21 58,-29 92,-62 104,-97 6,-20 24,-58 40,-83 37,-59 50,-160 27,-211 -9,-18 -28,-64 -43,-103 -15,-38 -41,-89 -59,-111 l -31,-42 -37,19 c -43,22 -52,24 -42,7 5,-7 3,-8 -5,-4 -7,5 -10,10 -7,13 3,4 -4,14 -15,24 -22,19 -53,27 -121,31 l -37,3 42,48 c 24,26 46,47 50,47 5,0 24,-12 43,-27 28,-23 34,-35 34,-65 0,-21 3,-38 6,-38 3,0 27,22 53,49 l 49,50 -18,28 c -24,40 -65,83 -79,83 -6,0 -11,3 -11,6 0,8 63,88 72,92 20,9 -9,102 -32,102 -6,0 -10,6 -10,14 0,14 -38,35 -103,56 -34,11 -40,10 -53,-7 -28,-37 -28,-63 0,-89 31,-30 32,-38 6,-88 -27,-53 -51,-67 -133,-76 -40,-5 -94,-19 -122,-32 l -50,-23 65,-3 c 36,-2 69,-7 75,-13 5,-5 17,-9 27,-9 16,0 18,-5 12,-37 -3,-21 -12,-49 -19,-63 -7,-14 -21,-41 -31,-60 -10,-19 -24,-41 -32,-49 -14,-15 -13,-42 3,-48 12,-4 116,92 132,120 9,18 13,17 63,-10 28,-15 65,-44 80,-63 41,-53 99,-161 116,-219 8,-30 21,-51 29,-51 29,0 152,172 218,305 81,163 93,190 116,265 12,41 27,83 32,92 5,10 9,43 9,74 0,45 -5,64 -25,90 -14,18 -25,37 -25,42 0,24 -37,76 -101,143 -38,41 -91,100 -116,132 -41,51 -50,57 -82,56 -20,0 -43,-3 -51,-6 z"
       id="path22"
       inkscape:connector-curvature="0" />
    <path
       d="m 1287,927 c -24,-24 -52,-56 -62,-70 -9,-15 -21,-24 -26,-21 -12,7 -11,-22 2,-68 l 10,-38 108,0 c 89,0 117,-4 157,-22 27,-11 55,-28 62,-37 12,-14 13,-14 8,2 -3,11 -9,31 -12,45 -3,15 -9,36 -14,47 -4,11 -13,34 -19,50 -7,17 -33,46 -59,65 -26,19 -57,47 -70,63 -13,15 -27,27 -32,27 -4,0 -28,-20 -53,-43 z"
       id="path24"
       inkscape:connector-curvature="0" />
    <path
       d="m 7473,612 c -10,-10 -34,-28 -54,-40 -19,-12 -44,-31 -55,-43 l -19,-22 25,8 c 30,9 140,85 140,96 0,18 -20,18 -37,1 z m -13,-36 c 0,-2 -7,-7 -16,-10 -8,-3 -12,-2 -9,4 6,10 25,14 25,6 z"
       id="path26"
       inkscape:connector-curvature="0" />
  </g>
</svg>
